<svg xmlns="http://www.w3.org/2000/svg" viewBox="0 0 395.7 395.7"><defs><style>.cls-1{fill:#fff;}.cls-2{fill:#4d4d4d;}</style></defs><title>Asset 4</title><g id="Layer_2" data-name="Layer 2"><g id="Layer_1-2" data-name="Layer 1"><circle class="cls-1" cx="198.5" cy="199.02" r="190.74"/><g id="Layer_2-2" data-name="Layer 2"><g id="Layer_1-2-2" data-name="Layer 1-2"><path class="cls-2" d="M197.85,395.7C88.75,395.7,0,307,0,197.85S88.75,0,197.85,0,395.7,88.76,395.7,197.85,307,395.7,197.85,395.7Zm0-386.44c-104,0-188.59,84.6-188.59,188.59s84.6,188.59,188.59,188.59,188.59-84.6,188.59-188.59S301.84,9.26,197.85,9.26Z"/><path class="cls-2" d="M84.08,155.5a121.4,121.4,0,0,1,227.54,0h61.51c-19.06-79.15-90.28-138-175.28-138S41.63,76.35,22.57,155.5Z"/><path class="cls-2" d="M311.62,240.2a121.4,121.4,0,0,1-227.54,0H22.57c19.06,79.15,90.28,138,175.28,138s156.22-58.83,175.28-138Z"/><path class="cls-2" d="M251.44,134.13a99.21,99.21,0,0,0-19-23.56,51.92,51.92,0,0,0-69.25.12,99.33,99.33,0,0,0-18.89,23.44c-10.38,17.63-15.48,41.06-15.48,65.93s5.05,48.32,15.43,66a83.52,83.52,0,0,0,6.4,9.38,60.14,60.14,0,0,0,94.36.13,83.47,83.47,0,0,0,6.5-9.51c10.38-17.64,15.43-41.08,15.43-66S261.82,151.77,251.44,134.13Z"/><path class="cls-1" d="M216.69,105.83c22.9,11.9,37.11,35.44,42.77,60,6.52,28.26,5.38,60.54-6.18,87.38-4.76,11-11.95,21.58-21.58,29,18.63-15.67,26.06-41.6,28.35-64.92,2.79-28.42-.57-59.86-16.18-84.4C236.93,122,227.9,112.35,216.69,105.83Z"/><path class="cls-1" d="M204.24,114.87,203.8,117c-.26,1.37-.61,3.38-.87,6-.61,5.16-.53,12.58-.21,21.48.22,4.44.15,9.34.51,14.34a67.22,67.22,0,0,0,3.12,15.48,70.22,70.22,0,0,0,7.36,15.22,92.92,92.92,0,0,1,7.91,16.1A44.44,44.44,0,0,1,224,223.47a100.81,100.81,0,0,1-3,17.08c-1.38,5.44-3.1,10.57-4.71,15.42a143.07,143.07,0,0,1-5,13.57,73.22,73.22,0,0,1-11.42,18.34,60.35,60.35,0,0,1-4.15,4.4l-1.56,1.46,1.49-1.53a59.18,59.18,0,0,0,3.91-4.59A78.52,78.52,0,0,0,210,269a141.39,141.39,0,0,0,4.57-13.57c1.48-4.89,3-10,4.36-15.4a98.62,98.62,0,0,0,2.83-16.73,42.2,42.2,0,0,0-2.4-17,90.7,90.7,0,0,0-7.57-15.75,72.48,72.48,0,0,1-7.4-15.71,62.42,62.42,0,0,1-2.87-16c-.22-5.2,0-10-.11-14.44a136.11,136.11,0,0,1,1.18-21.55c.38-2.58.84-4.58,1.17-5.93Z"/><path class="cls-1" d="M199.72,110.65c-3.37,12.69-2,24-2.58,37.77s1.15,26.24,7.46,38.51c3.66,7.12,8.53,13.84,11.07,21.52,4.66,14.1-1.65,30.36-5.56,44.49s-9.11,26.75-19.8,36.86c3.12-11.76,6.35-22.15,7.59-35.08s-2-25.33-6.36-37.23c-4-10.9-11.7-20.31-14.53-31.71-3.54-14.27,1.33-29.41,5.79-43.37C186.71,130.16,190.28,119.59,199.72,110.65Z"/><path class="cls-1" d="M71.86,120.73q.54-1.12,2.72-.05a8.08,8.08,0,0,1,3.37,3,9,9,0,0,1,1.42,3.87,16,16,0,0,1-.12,4.14,18.32,18.32,0,0,1-5.85,11.73,12,12,0,0,1-9.66,3.44,19.66,19.66,0,0,1-7.5-2,27.43,27.43,0,0,1-6.24-4.2A24.46,24.46,0,0,1,45.35,135a14.65,14.65,0,0,1-2-7.41,19.72,19.72,0,0,1,4.48-12.29,15,15,0,0,1,2.81-2.75,7.52,7.52,0,0,1,3.27-1.24,6.51,6.51,0,0,1,3.89.66,6.67,6.67,0,0,1,3.12,3.14,5.53,5.53,0,0,1,.46,2.56A8,8,0,0,1,60.5,121a4.58,4.58,0,0,1-3.76,3,3.15,3.15,0,0,1-1.81-.3,1,1,0,0,1-.63-1.25,3.42,3.42,0,0,0-1.8-3.65,2.38,2.38,0,0,0-1.79-.14A4.85,4.85,0,0,0,48,121.3a6.45,6.45,0,0,0-.39,4.59,10.35,10.35,0,0,0,2.48,4.46,25.63,25.63,0,0,0,7.46,5.84,13.36,13.36,0,0,0,6.78,1.64,9.16,9.16,0,0,0,5.85-2.31,11.78,11.78,0,0,0,2.37-3.36,10.34,10.34,0,0,0,.65-7.41,9,9,0,0,0-1.31-3.05A1,1,0,0,1,71.86,120.73Z"/><path class="cls-1" d="M67.58,99.36,67.53,99a10.26,10.26,0,0,1-1.62-4.24,11.49,11.49,0,0,1,0-3.88,13.12,13.12,0,0,1,1.2-3.34,17.88,17.88,0,0,1,2.34-3.61,17,17,0,0,1,6.15-4.68,11.36,11.36,0,0,1,6.4-.88,22.25,22.25,0,0,1,10.69,5.31q8.17,7.11,7.6,15.3a18.25,18.25,0,0,1-2.18,7.49,20.63,20.63,0,0,1-2.64,3.88q-5.38,6.18-11.16,6.26a15.7,15.7,0,0,1-10.77-4.25,27.32,27.32,0,0,1-4.75-5.26,15.21,15.21,0,0,1-2.24-4.3l-.43-1.5a.9.9,0,0,1,.22-.94,3.76,3.76,0,0,1,.63-.62,2.41,2.41,0,0,1,.42-.24A.59.59,0,0,0,67.58,99.36Zm4.07-12.27a5.92,5.92,0,0,0-1.59,3.82,7.35,7.35,0,0,0,2.62,5.93q2.67,2.34,4.76,1a.66.66,0,0,1,.88,0,3.13,3.13,0,0,1,1.06,2.66,6.13,6.13,0,0,1-1.18,3.23c-.26.3-.3.52-.12.68a14.27,14.27,0,0,0,1.15,1.09A21.75,21.75,0,0,0,81,106.9a17.1,17.1,0,0,0,2.61,1.45,10.67,10.67,0,0,0,3.06.93,6.83,6.83,0,0,0,3.15-.39,7.92,7.92,0,0,0,3.29-2.44,7,7,0,0,0,1.77-4.33,8,8,0,0,0-1.16-4.66A25.2,25.2,0,0,0,88.56,91a32.14,32.14,0,0,0-5.62-4,16.82,16.82,0,0,0-4.43-1.82,8.26,8.26,0,0,0-3.3,0,6.42,6.42,0,0,0-2.27.8A6.57,6.57,0,0,0,71.65,87.09Z"/><path class="cls-1" d="M107,85l-4.84-7.5L98.62,80c-.29.2-.48.22-.6.06a4.12,4.12,0,0,1,1-4.72l1.12-.8q-2.39-3.13-3.48-4.45A10.7,10.7,0,0,0,92.83,67l-.56-.22a.8.8,0,0,1-.56-.34c-.14-.19-.06-.5.24-.91s.76-1,1.38-1.73,2.08-2.15,4.35-4.23a80.44,80.44,0,0,1,7.81-6.26q4.42-3.13,5.16-2.92a3,3,0,0,1,1.49,1.26c.5.7.62,1.14.37,1.31l-.4.22a18.28,18.28,0,0,0-2.74,1.69,38.66,38.66,0,0,0-3.62,2.94Q103.89,59.5,103,60.5l-.81,1a1.09,1.09,0,0,0-.23,1,54.14,54.14,0,0,0,4.63,7.5l8.66-6.14c.32-.23.54-.26.65-.1a3.47,3.47,0,0,1,.37,2.33,3.07,3.07,0,0,1-1.22,2.35l-6.39,4.47L117.79,85a2.35,2.35,0,0,1,.56,1.58,8.38,8.38,0,0,1-2.35,4A24.67,24.67,0,0,1,112.33,94a.45.45,0,0,1-.72-.11,1.16,1.16,0,0,1-.18-.37Q111.57,92.29,107,85Z"/><path class="cls-1" d="M131.5,69.1l-3.25-8.32-4,1.78q-.48.21-.6-.07a4.1,4.1,0,0,1,1.91-4.43l1.26-.56q-1.71-3.54-2.52-5.06a10.67,10.67,0,0,0-3.11-3.8l-.5-.33a.8.8,0,0,1-.48-.45c-.09-.21,0-.49.41-.84s.94-.82,1.7-1.42,2.47-1.69,5.11-3.28a80.5,80.5,0,0,1,8.9-4.57q5-2.19,5.64-1.83a3,3,0,0,1,1.21,1.53c.35.79.38,1.24.1,1.36l-.44.14a18.43,18.43,0,0,0-3,1.11,38.44,38.44,0,0,0-4.13,2.16,36.87,36.87,0,0,0-3.23,2.09l-1,.83a1.07,1.07,0,0,0-.43,1,53.67,53.67,0,0,0,3,8.19L143.77,50c.36-.16.58-.14.66,0a3.49,3.49,0,0,1-.1,2.36,3.07,3.07,0,0,1-1.67,2.06l-7.15,3.11L142,71.22a2.38,2.38,0,0,1,.23,1.66,8.35,8.35,0,0,1-3.1,3.44,24.87,24.87,0,0,1-4.27,2.58.45.45,0,0,1-.68-.25,1.09,1.09,0,0,1-.1-.4Q134.49,77.15,131.5,69.1Z"/><path class="cls-1" d="M184.35,55.93a5.67,5.67,0,0,1-1.82,5.71q-2.52,2.26-7.66,3.29-8.22,1.66-13-1.75t-6-10.18c-.14-.72-.32-1.79-.51-3.19l-3.6.72c-.34.07-.54,0-.57-.19a3.39,3.39,0,0,1,.68-2.25A3.28,3.28,0,0,1,154,46.44l1.22-.24a18.56,18.56,0,0,1,1.46-6.83,17.5,17.5,0,0,1,3.14-5,19.18,19.18,0,0,1,4.11-3.3A24.24,24.24,0,0,1,172,27.9q4.36-.88,5.68,0a3,3,0,0,1,.91,1.9q.29,1.46-.16,1.55a3.85,3.85,0,0,1-.61-.08,12.9,12.9,0,0,0-4.3.25q-5.46,1.1-7.91,4.68A15.06,15.06,0,0,0,163,44.61l13.22-2.72c.42-.09.66,0,.71.22a3.58,3.58,0,0,1-.63,2.21,3.08,3.08,0,0,1-2,1.68l-11,2.23q.05.6.46,2.6a11.06,11.06,0,0,0,1.78,4,8.29,8.29,0,0,0,4.22,3,12.82,12.82,0,0,0,6.89.2,15.43,15.43,0,0,0,6.53-2.76,1.18,1.18,0,0,1,.53-.31C184,54.93,184.21,55.24,184.35,55.93Z"/><path class="cls-1" d="M217.65,56.68a5.68,5.68,0,0,1-3.1,5.13,16.21,16.21,0,0,1-8.21,1.42q-8.39-.3-12.19-4.73t-3.56-11.32c0-.74.11-1.81.25-3.22l-3.66-.13c-.35,0-.52-.12-.51-.32a3.35,3.35,0,0,1,1.19-2,3.27,3.27,0,0,1,2.47-1.12h1.24a18.38,18.38,0,0,1,3-6.3A17.44,17.44,0,0,1,198.78,30a19.12,19.12,0,0,1,4.77-2.25,24.17,24.17,0,0,1,8.57-1.2q4.45.16,5.53,1.31a3,3,0,0,1,.45,2.06c0,1-.21,1.48-.51,1.47a3.15,3.15,0,0,1-.58-.22,12.84,12.84,0,0,0-4.24-.76q-5.57-.2-8.79,2.71a15.08,15.08,0,0,0-4.43,7.61q5,.13,13.49.44c.43,0,.65.14.64.38a3.48,3.48,0,0,1-1.12,2,3,3,0,0,1-2.4,1.15l-11.26-.4c-.06.4-.11,1.28-.16,2.64a11,11,0,0,0,.79,4.32,8.29,8.29,0,0,0,3.4,3.93,12.84,12.84,0,0,0,6.65,1.8,15.41,15.41,0,0,0,7-1.16,1.12,1.12,0,0,1,.6-.18C217.51,55.61,217.67,56,217.65,56.68Z"/><path class="cls-1" d="M263.18,47.91l.81-1.36a2.85,2.85,0,0,0-1.11-3.63,12.49,12.49,0,0,0-2.46-1.45h-.06a10.87,10.87,0,0,0-3.35-.8,4.92,4.92,0,0,0-2.38.34A5.43,5.43,0,0,0,252,43.28a3.92,3.92,0,0,0,.87,3.88A24.45,24.45,0,0,0,257,51.38q2.58,2.12,5.1,4.41A14.85,14.85,0,0,1,265.94,61a7.48,7.48,0,0,1,.09,5.88,10.13,10.13,0,0,1-8.11,6.79,21.85,21.85,0,0,1-11.86-1.34,22.63,22.63,0,0,1-9.12-6q-3.12-3.63-1.74-7.15h0a6.8,6.8,0,0,1,1.89-2.75,5.3,5.3,0,0,1,2.42-1.24,8.48,8.48,0,0,1,4.2.07l.75.24a8,8,0,0,1,2.86,1.85,2.1,2.1,0,0,1,.71,2.31q-.22.56-1.16.63a4,4,0,0,0-1.81.59,3,3,0,0,0-1.14,1l-.33.47q-1.12,2.86,1.93,5.14a8.62,8.62,0,0,0,1.82,1.09,9.37,9.37,0,0,0,6,.56A5.11,5.11,0,0,0,257,66q1.12-2.86-1.36-5.89a30.9,30.9,0,0,0-4.29-4.22q-2.42-2-3.25-2.74c-.56-.5-1.13-1.07-1.73-1.7A17.71,17.71,0,0,1,244.45,49a6.56,6.56,0,0,1-.85-6.48,8.12,8.12,0,0,1,4.59-4.72q5.91-2.51,14.45.84A20.68,20.68,0,0,1,269.75,43q2.59,2.55,1.67,4.9a3.88,3.88,0,0,1-2.35,2.33,5,5,0,0,1-3.65-.13,6.45,6.45,0,0,1-1.69-1C263.22,48.69,263,48.29,263.18,47.91Z"/><path class="cls-1" d="M287,67.48l-.41.57L296,74.9l0-.08c.52-.63,1.13-1.43,1.86-2.42s1.34-1.87,1.85-2.64.93-1.43,1.27-2,.63-1,.85-1.44l.51-1a3.94,3.94,0,0,1,.35-.59c.12-.16.45-.21,1-.14a15.13,15.13,0,0,1,6.61,2.84q2,1.43,1.57,2c-.43.57-.16.15-.43.37a65,65,0,0,0-9.09,9.77l-5.52,7.21q-4.61,6.3-5.45,9.44a1.54,1.54,0,0,1-.24.67c-.11.15-.37.22-.8.2a14.12,14.12,0,0,1-5.79-2.74c-1.34-1-1.84-1.89-1.5-2.72a9,9,0,0,1,1.13-1.88q.88-1.2,2.88-3.55t6.63-8.45L284.47,71q-6.79,9.28-8.78,13.56-.72,1-3.61-.17a20.59,20.59,0,0,1-4.48-2.31q-1.59-1.16-1.32-1.53a2,2,0,0,1,.61-.49q2.25-1,11.06-13l.39-.53-3.12-2.28c-.28-.21-.37-.39-.25-.55a4.33,4.33,0,0,1,2.59-1,3,3,0,0,1,2.26.52l.58.42q5.86-8,5.54-10.12v-.4a.74.74,0,0,1,0-.74c.15-.21.47-.23,1-.08a16.47,16.47,0,0,1,3.36,1.34,25.87,25.87,0,0,1,4,2.32c1.1.8,1.5,1.39,1.22,1.77l-.09.12A107.48,107.48,0,0,0,287,67.48Z"/><path class="cls-1" d="M318.67,88h.4a10.21,10.21,0,0,1,4.47-.81,11.51,11.51,0,0,1,3.81.75,13.15,13.15,0,0,1,3.06,1.8,17.94,17.94,0,0,1,3.12,3A17.09,17.09,0,0,1,337,99.65a11.38,11.38,0,0,1-.34,6.4,22.19,22.19,0,0,1-7.19,9.52Q321,122.29,313,120.2a18.19,18.19,0,0,1-7-3.52,21,21,0,0,1-3.32-3.31q-5.08-6.43-4.09-12.13a15.73,15.73,0,0,1,6.17-9.8,27.35,27.35,0,0,1,6-3.69,15.17,15.17,0,0,1,4.64-1.41L317,86.2a.91.91,0,0,1,.89.39,3.87,3.87,0,0,1,.48.74,2.55,2.55,0,0,1,.17.46A.8.8,0,0,0,318.67,88ZM330,94.28A5.93,5.93,0,0,0,326.52,92a7.36,7.36,0,0,0-6.31,1.48q-2.79,2.2-1.88,4.49a.65.65,0,0,1-.15.86,3.13,3.13,0,0,1-2.81.55,6.1,6.1,0,0,1-3-1.75c-.24-.31-.46-.39-.64-.25a14,14,0,0,0-1.29.93,19.87,19.87,0,0,0-1.7,1.51,16.81,16.81,0,0,0-1.91,2.3,10.61,10.61,0,0,0-1.48,2.84,6.85,6.85,0,0,0-.2,3.16,8,8,0,0,0,1.78,3.68,7.07,7.07,0,0,0,3.93,2.54,7.94,7.94,0,0,0,4.79-.28,25.24,25.24,0,0,0,7.28-3.91,32.15,32.15,0,0,0,5-4.78,16.87,16.87,0,0,0,2.6-4,8.29,8.29,0,0,0,.67-3.23A5.45,5.45,0,0,0,330,94.28Z"/><path class="cls-1" d="M341.64,135.73a2.68,2.68,0,0,1,0,1.06,3,3,0,0,0,.24,1.54v.06a4.9,4.9,0,0,0,5.74,2.93L349,141a6.81,6.81,0,0,0,2.72-2,5.85,5.85,0,0,0,1.2-2.42,7.23,7.23,0,0,0,0-2.52,11.59,11.59,0,0,0-.91-3.36,12.59,12.59,0,0,0-1.42-2.56q-.7-.91-1-.93l-.3.06q-6.48,2.18-11.39,4.33t-8.38,3.91q-3.47,1.77-5.29,2.81c-1.22.7-1.89,1.07-2,1.13-.77.33-1.77-.28-3-1.84a22.32,22.32,0,0,1-3-4.92c-.35-.8-.37-1.27-.07-1.4a3,3,0,0,1,.73-.1q2.53.25,19.39-7.11,9.93-4.34,10.6-6.71a.82.82,0,0,1,.42-.61c.2-.09.55.1,1,.58a28.52,28.52,0,0,1,3,4.52,77.67,77.67,0,0,1,4.21,8.31q3.1,7.09,1.7,11.95a9.67,9.67,0,0,1-5.48,6.65,10.74,10.74,0,0,1-8.36.19,11,11,0,0,1-6.32-6.29,12.16,12.16,0,0,1-.9-3.18q-.48-3.37,2.15-4.51a3.92,3.92,0,0,1,1.71-.18A1.63,1.63,0,0,1,341.64,135.73Z"/><path class="cls-1" d="M73,263c.44-.27.75-.17,1.14.48l2.95,5c3.75,6.32,3.29,10.54-1.87,13.61-6.13,3.65-10.6.6-13.58-4.42l-1-1.75-10,5.92c-.59.35-.59.35-3-3.71Zm1.9,7.77-1.49-2.51-10,6,1.31,2.21c1.67,2.81,4.06,3.36,8.18.91,2.63-1.61,3.79-3.65,2-6.61Z"/><path class="cls-1" d="M73.34,309.39c-2.28,1.85-2.45,2-3,1.27l-8.72-10.73,22.92-18.61a.88.88,0,0,1,1.2.31l8.79,10.82c-2.22,1.8-2.45,2-3,1.31l-5.85-7.2-7,5.7L84.15,299c-2.08,1.69-2.52,2-3.07,1.36l-5-6.12L67,301.6Z"/><path class="cls-1" d="M96.8,296s.5-.55,1.23.13l4.26,3.89c5.43,5,6.21,9.12,2.15,13.55-3.12,3.41-6.38,4-9.46,2.83a19.15,19.15,0,0,1-4.35,12.89c-.44.47-.71.52-2.35-1-.56-.52-1.26-1.22-2-2C90.72,320.52,91.12,316,91,314a10.88,10.88,0,0,1-.89-.75l-1.51-1.37-7.82,8.55c-.47.51-.51.47-4-2.68Zm4.07,6.87-2.15-2-7.88,8.61,1.9,1.73c2.41,2.2,4.86,2,7.95-1.35,2.2-2.39,2.71-4.68.18-7Z"/><path class="cls-1" d="M97.09,335.08l16.51-24.47a.88.88,0,0,1,1.23,0l11.56,7.81c-1.59,2.36-1.7,2.5-2.42,2l-7.69-5.19-5.12,7.59,7.25,4.9c-1.48,2.18-1.79,2.65-2.52,2.16l-6.53-4.41-7.93,11.75s-.34.61-1.16,0Z"/><path class="cls-1" d="M131,351c-1.3,2.63-1.4,2.82-2.23,2.41l-12.39-6.13,13.06-26.44a.87.87,0,0,1,1.21-.23h0l12.5,6.18c-1.26,2.55-1.4,2.82-2.18,2.44l-8.31-4.11-4,8.09,7.84,3.88c-1.19,2.4-1.43,2.9-2.22,2.52l-7.06-3.49L122,346.6Z"/><path class="cls-1" d="M161.83,335.14a3.54,3.54,0,0,1-1.39,1.77,7.13,7.13,0,0,0-3.26-2.22c-3.49-1.15-7.65-.48-11.22,10.35-2.75,8.33-1.09,10.93,2.18,12a11.18,11.18,0,0,0,5.52.41,4.36,4.36,0,0,1,0,2.23c-.53,1.6-3.74,2-7.84.69-5.27-1.74-8.61-4.8-4.68-16.74,4.63-14,11.29-14.1,16.22-12.47C161.46,332.52,162.18,334.07,161.83,335.14Z"/><path class="cls-1" d="M176.08,339.36l-4.42,25.88c-.12.68-.18.67-4.77-.12l4.54-26.56-7.82-1.33.43-2.51c.09-.51.41-.68,1.1-.56l19.55,3.33-.43,2.56c-.09.51-.41.63-1.1.51Z"/><path class="cls-1" d="M200,368.1l-1.5-29.49s0-.74,1-.78l13.92-.7c.15,2.85.16,3-.72,3.06l-9.26.47.47,9.16,8.74-.44c.13,2.64.16,3.19-.71,3.24L204,353l.72,14.16s.09.69-.9.74Z"/><path class="cls-1" d="M226.82,362.18l9.86-1.86.48,2.55c.1.55-.27.76-.85.87l-13.58,2.57-5.43-28.76c-.19-1-.07-1,4.51-1.87Z"/><path class="cls-1" d="M257.46,349,248,352.4l.26,7.43c0,.51-.09.77-1.85,1.4-.6.22-1.77.59-2.84.89l-.32-31.47c0-.44.51-.82,1.49-1.18a16.42,16.42,0,0,1,2.13-.63l19.87,24.29c.27.41.08.75-1.67,1.38-.66.24-1.54.55-2.66.87Zm-9.59.06,7.57-2.73-3.95-5.1a55.3,55.3,0,0,1-4.73-7.11,76.54,76.54,0,0,1,.89,8.49Z"/><path class="cls-1" d="M258.41,324.35l3.34-1.93,12.54,12.09c2.78,2.84,5.4,5.87,7.28,8-1-2.63-2.35-6.43-3.44-10.19L274,316.54c-.19-.69-.21-1.07.55-1.51l3.59-2.06,7.36,30.82a33.64,33.64,0,0,1-3.35,2.13c-1.32.76-2.54.26-3.68-.77C273,340.2,258,325.78,258,325.78,257.45,325.25,257.3,325,258.41,324.35Z"/><path class="cls-1" d="M288.12,304.24c5.8-4.88,10.22-4,17.74,5s7.63,14.23,1.74,19.18-10.12,4.28-18.13-5.23C282.07,314.35,282.35,309.08,288.12,304.24Zm17.35,21.24c3.21-2.7,2.18-6.18-3.49-12.93s-8.43-8.2-11.65-5.5-2.26,6.19,3.75,13.32c5.17,6.16,8.22,7.77,11.39,5.11Z"/><path class="cls-1" d="M318.9,304.76c2.7,2.23,5,3.22,8.13-.56a16.28,16.28,0,0,0,2.67-4.46l-20-16.48c-.56-.46-.53-.51,2.48-4.16l22.47,18.51a27.49,27.49,0,0,1-5.11,8.64c-5.94,7.2-10,5.41-13.81,2.22l-16-13.15c-.57-.47-.57-.47,2.55-4.25Z"/><path class="cls-1" d="M315.65,275s-.64-.37-.14-1.23l2.87-5c3.65-6.38,7.54-8.06,12.76-5.07,4,2.3,5.25,5.36,4.84,8.61a19.16,19.16,0,0,1,13.53,1.42c.57.33.67.59-.43,2.51-.38.66-.91,1.5-1.46,2.39-6.66-3.07-11.14-2.48-13.07-2a8.21,8.21,0,0,1-.54,1l-1,1.77,10,5.85c.6.34.57.39-1.74,4.45Zm5.82-5.48L320,272.09l10.13,5.8,1.27-2.23c1.62-2.84.93-5.19-3-7.46-2.82-1.63-5.16-1.62-6.87,1.36Z"/><path class="cls-2" d="M26.55,207.9H34v5H21.36v-30h12.3v5H26.55v7.31h6.06v5H26.55Z"/><path class="cls-2" d="M44.23,206.72V201.3a1.37,1.37,0,0,0-.21-.87,1,1,0,0,0-.76-.26h-3.2q-4.28,0-4.28-5.28V188q0-5.18,4.57-5.19h4.43q4.57,0,4.57,5.19v4H44.16v-3q0-1.18-1-1.18H41.94c-.65,0-1,.39-1,1.18v5.28a1.37,1.37,0,0,0,.21.87,1,1,0,0,0,.76.26H45a4,4,0,0,1,3.34,1.3,6.14,6.14,0,0,1,1,3.84v7.07q0,5.24-4.57,5.24H40.45q-4.61,0-4.61-5.24v-3.87H41v3q0,1.18,1,1.18h1.23C43.9,207.9,44.23,207.5,44.23,206.72Z"/><path class="cls-2" d="M64.44,182.85v5H60.2v25H55v-25H50.8v-5Z"/><path class="cls-2" d="M66.51,182.85h9.62q4.61,0,4.61,5.19v19.57q0,5.24-4.61,5.24H66.51Zm9,24.19V188.65q0-1.18-1-1.18H71.7v20.75h2.87c.65,0,1-.39,1-1.22Z"/><path class="cls-2" d="M324.94,182.85v30h-5.19v-25h-3v-5Z"/><path class="cls-2" d="M332.35,182.85h4.43q4.6,0,4.61,5.19v19.57q0,5.24-4.61,5.24h-4.21q-4.61,0-4.61-5.24v-3.87h5v3q0,1.18,1,1.18h1.38c.63,0,.94-.39.94-1.18V201h-4q-4.61,0-4.61-5.19V188Q327.74,182.85,332.35,182.85Zm1.45,13.54h2.5V189c0-.79-.31-1.18-.94-1.18H333.8c-.65,0-1,.39-1,1.18v6.22a1.47,1.47,0,0,0,.21.92,1,1,0,0,0,.79.25Z"/><path class="cls-2" d="M348.67,182.85h4.43q4.6,0,4.61,5.19v19.57q0,5.24-4.61,5.24h-4.21q-4.61,0-4.61-5.24v-3.87h5v3q0,1.18,1,1.18h1.38c.63,0,.94-.39.94-1.18V201h-4q-4.61,0-4.61-5.19V188Q344.07,182.85,348.67,182.85Zm1.45,13.54h2.5V189c0-.79-.31-1.18-.94-1.18h-1.56c-.65,0-1,.39-1,1.18v6.22a1.47,1.47,0,0,0,.21.92,1,1,0,0,0,.8.25Z"/><path class="cls-2" d="M365.77,195.16h4q4.61,0,4.61,5.19v7.26q0,5.24-4.61,5.24H365.3q-4.61,0-4.61-5.24V188q0-5.18,4.61-5.19h4.17q4.61,0,4.61,5.19v4.06H369V189q0-1.18-1-1.18h-1.31c-.63,0-.94.39-.94,1.18Zm3.48,11.55V201.1q0-1.18-1-1.18h-2.5v6.79c0,.79.31,1.18.94,1.18h1.56q1,0,1-1.17Z"/></g></g></g></g></svg>